<?xml version="1.0" encoding="UTF-8"?>
<svg id="Livello_1" data-name="Livello 1" xmlns="http://www.w3.org/2000/svg" viewBox="0 0 1190.55 841.89">
  <path d="M624.14,170.06s-410.95-3.18-432.22,0c-14.87,2.23-68.84,12.31-69.34,90.14-.32,49.82,50.87,57.05,78.61,107.9,27.74,50.85,6.91,60.83-20.82,90.88-27.74,30.05-89.03,87.04-93.33,94.21-4.3,7.17-2.87,14.34,8.61,15.78,9.28,1.16,57.99.44,76.26.13v25.23h65.12c29.27.18,60.86-.02,60.86-.02,0,0,4.31-31.08-30.11-29.65,0,0,68.85-22.95,65.98-88.93-2.87-65.98-44.47-88.93-67.42-111.88-22.95-22.95-55.94-54.51-41.6-67.42,14.34-12.91,22.95-2.87,57.38,30.12,34.42,32.99,64.55,60.24,117.62,55.94,53.07-4.3,78.89-34.43,107.58-60.24,28.69-25.82,132.13-127.56,136.27-134.83,4.08-7.18,5.75-17.97-19.44-17.36ZM205.05,244.31c-11.93,0-21.59-9.67-21.59-21.59s9.67-21.59,21.59-21.59,21.59,9.67,21.59,21.59-9.67,21.59-21.59,21.59Z"/>
  <path d="M374.81,673.24c-10.48,0-16.5-5.45-16.5-14.95v-184.85c0-6.67,1.99-11.38,5.92-14,3.36-2.24,7.44-3.38,12.12-3.38h57.05c4.28,0,8.64.75,12.97,2.22.48.16.97.34,1.45.51,7.85,2.89,14.86,7.86,19.72,14.67.75,1.05,1.4,2.09,1.86,3.05,2.4,5.06,3.62,10.99,3.62,17.63v65.2c0,13.55-4.59,23.45-13.64,29.43-8.95,5.75-17.68,8.65-25.98,8.65h-22.84c-3.65,0-12.19-1.42-12.75-14.55v-.19c0-13.3,8.91-14.73,12.75-14.73h18.87c5.94,0,7.52-2.14,8.04-2.85,1.72-2.33,2.56-4.72,2.56-7.31v-62.11c0-2.75-.85-5.26-2.59-7.68-.49-.69-1.99-2.79-8-2.48h-.23s-37.91,0-37.91,0v172.98c0,9.36-6.01,14.73-16.5,14.73Z"/>
  <path d="M564.62,597.42h-37.01c-8.73,0-17.25-3.12-25.34-9.26l-.15-.12c-4.05-3.37-7.21-7.67-9.38-12.77-2.13-4.99-3.21-10.8-3.21-17.24v-62.77c0-13.26,4.27-23.31,12.7-29.89,4.08-2.94,8.22-5.23,12.43-6.9,4.38-1.74,8.74-2.62,12.95-2.62h37.01c3.97,0,8.35.78,13.03,2.31,4.59,1.51,8.93,3.55,12.89,6.09l.17.12c4.12,2.92,7.45,6.96,9.89,12.02,2.41,4.99,3.63,10.89,3.63,17.55v27.49c0,4.33-1.29,8.25-3.85,11.66-2.85,3.8-7.7,5.72-14.41,5.72h-47.57c-3.65,0-12.19-1.42-12.75-14.55v-.19c0-13.3,8.91-14.73,12.75-14.73h33.01l-.17-13.8c0-2.77-.83-5.18-2.53-7.43-1.39-1.84-4.11-2.77-8.06-2.77h-27.53c-3.96,0-6.67.93-8.07,2.78-1.7,2.25-2.53,4.66-2.53,7.38v62.33c0,2.59.84,4.98,2.56,7.31.52.7,2.1,2.85,8.04,2.85h27.53c4.05,0,6.65-.99,8.2-2.51,1.2-1.18,2.12-1.98,2.39-4.3v-2.42c0-9.36,6.01-14.73,16.5-14.73s16.5,5.37,16.5,14.73v2.64c0,6.83-1.11,10.25-3.43,14.91-2.29,4.57-5.73,8.58-10.24,11.92-8.56,6.14-17.27,9.23-25.95,9.23Z"/>
  <path d="M638.58,599.18c-15.09,0-16.72-10.3-16.72-14.73v-157.93c0-4.43,1.63-14.73,16.72-14.73,10.48,0,16.5,5.37,16.5,14.73v157.93c0,9.36-6.01,14.73-16.5,14.73Z"/>
  <path d="M691.61,598.74c-10.62,0-16.72-5.45-16.72-14.95v-113.65c0-9.5,6.09-14.96,16.72-14.96s16.5,5.45,16.5,14.96v113.65c0,9.5-6.01,14.95-16.5,14.95ZM691.61,452.93c-5.86,0-10.93-2.05-15.07-6.1-4.16-4.06-6.27-9.12-6.27-15.03s2.11-11.18,6.27-15.25c4.14-4.05,9.21-6.1,15.07-6.1s10.92,2.06,14.99,6.13c4.07,4.08,6.13,9.19,6.13,15.22s-2.06,10.92-6.13,14.99c-4.07,4.07-9.11,6.13-14.99,6.13Z"/>
  <path d="M802.8,597.42h-37.01c-8.73,0-17.25-3.12-25.34-9.26l-.15-.12c-4.05-3.37-7.21-7.67-9.38-12.77-2.13-4.99-3.21-10.8-3.21-17.24v-62.77c0-13.26,4.27-23.31,12.7-29.89,4.08-2.94,8.22-5.23,12.43-6.9,4.38-1.74,8.74-2.62,12.95-2.62h37.01c3.97,0,8.35.78,13.03,2.31,4.59,1.51,8.93,3.55,12.89,6.09l.17.12c4.12,2.92,7.45,6.96,9.89,12.02,2.41,4.99,3.63,10.89,3.63,17.55v11.01c0,9.5-6.01,14.95-16.5,14.95s-16.5-5.45-16.5-14.95v-9.47c0-2.71-.83-5.13-2.53-7.38-1.39-1.84-4.11-2.77-8.06-2.77h-27.53c-3.96,0-6.67.93-8.07,2.78-1.7,2.25-2.53,4.66-2.53,7.38v62.33c0,2.59.84,4.98,2.56,7.31.52.7,2.1,2.85,8.04,2.85h27.53c5.94,0,7.52-2.14,8.04-2.85,1.72-2.33,2.56-4.72,2.56-7.31v-10.13c0-9.36,6.01-14.73,16.5-14.73s16.5,5.37,16.5,14.73v10.35c0,13.47-4.61,23.63-13.71,30.2-8.52,6.11-17.23,9.2-25.91,9.2Z"/>
  <path d="M957.15,598.74c-1.73,0-3.4-.08-4.96-.24-2.04-.22-3.9-.82-5.55-1.81-1.8-1.08-3.23-2.62-4.27-4.58-1.01-1.9-1.5-4.19-1.5-7l-.2-43.85h-40.13c-1.39,0-3.3.26-5.07.64-3.16.67-5.43,3.45-5.53,6.67-.04,1.35,0,2.63,0,3.51v8.59c0,3.73,1.44,4.98,1.91,5.39.81.71,3.05,1.9,8.91,1.9h22.42c3.77,0,12.53,1.44,12.53,14.73,0,3.8-.91,7.1-2.72,9.81-1.5,2.25-4.42,4.92-9.81,4.92h-26.61c-4.97,0-9.77-.69-14.27-2.06-4.44-1.35-8.79-3.32-12.92-5.86-8.56-5.41-12.88-15.03-12.88-28.62v-10.79c0-6.65,1.22-12.58,3.62-17.63,2.56-5.39,5.89-9.44,10.17-12.41,4.04-2.75,8.37-4.83,12.89-6.21,4.51-1.37,8.94-2.06,13.17-2.06h44.29v-16.1c0-2.71-.83-5.13-2.53-7.38-1.39-1.84-4.11-2.77-8.07-2.77h-25.77c-2.85,0-6.56.42-8.11,2.39-1.52,1.94-2.26,4.19-2.26,6.88v1.76c0,10.06-6.09,15.84-16.72,15.84s-16.72-5.77-16.72-15.84v-1.98c0-6.7,1.24-12.49,3.68-17.21,2.55-4.93,5.73-8.79,9.72-11.83l.25-.18c4.05-2.65,7.35-5.33,11.81-7.05,4.68-1.8,9.44-2.33,14.6-2.25h33.48c5.56.33,8.69.91,13.36,2.72,4.48,1.73,8.74,3.96,12.67,6.63,4.37,3.19,7.64,7.31,10.11,12.7,2.31,5.04,3.48,10.88,3.48,17.36v88.32c0,9.5-6.01,14.95-16.5,14.95Z"/>
  <path d="M1089.25,598.74c-10.48,0-16.5-5.45-16.5-14.95v-86.56c0-1.97-.19-3.59-.87-5.29-.69-1.72-1.85-3.21-3.24-4.44-.77-.68-1.16-1.09-2.29-1.51-1.02-.38-2.42-.46-4.19-.46h-27.53c-.61,0-1.21.07-1.8.18-5.05,1-8.58,5.6-8.78,10.74,0,.25-.01.51-.01.77v86.56c0,9.5-6.01,14.95-16.5,14.95s-16.5-5.45-16.5-14.95v-88.54c0-6.6,1.09-12.44,3.22-17.38,2.23-5.16,5.79-9.42,10.59-12.68,8.41-6.03,17.13-9.13,25.81-9.13h35.46c8.36,0,17.05,3.08,25.84,9.15,9.16,6.45,13.78,16.55,13.78,30.04v88.54c0,9.5-6.01,14.95-16.5,14.95Z"/>
</svg>