<?xml version="1.0" encoding="UTF-8"?>
<svg id="Livello_1" data-name="Livello 1" xmlns="http://www.w3.org/2000/svg" viewBox="0 0 1190.55 841.89">
  <path d="M908.07,165.33s-496.75-3.85-522.46,0c-17.98,2.69-83.22,14.89-83.82,108.96-.38,60.22,61.49,68.96,95.02,130.42,33.53,61.47,8.35,73.53-25.17,109.85-33.53,36.32-107.61,105.21-112.82,113.88-5.2,8.67-3.47,17.34,10.4,19.07,11.22,1.4,70.1.54,92.18.15v30.5h78.72c35.38.22,73.56-.02,73.56-.02,0,0,5.22-37.57-36.4-35.84,0,0,83.23-27.74,79.76-107.5-3.47-79.76-53.75-107.5-81.49-135.24-27.74-27.74-67.62-65.89-50.28-81.49,17.34-15.6,27.74-3.47,69.35,36.41,41.61,39.88,78.02,72.82,142.18,67.62,64.15-5.2,95.36-41.61,130.04-72.82,34.68-31.21,159.72-154.19,164.72-162.98,4.93-8.67,6.95-21.72-23.49-20.98ZM401.48,255.08c-14.42,0-26.1-11.69-26.1-26.1s11.69-26.1,26.1-26.1,26.1,11.69,26.1,26.1-11.69,26.1-26.1,26.1Z"/>
</svg>